<svg width="27" height="27" viewBox="0 0 27 27" fill="none" xmlns="http://www.w3.org/2000/svg">
<path d="M21.375 7.875C21.375 6.6375 20.3625 5.625 19.125 5.625H15.75V7.875H19.125V10.8562L15.21 15.75H11.25V10.125H6.75C4.26375 10.125 2.25 12.1388 2.25 14.625V18H4.5C4.5 19.8675 6.0075 21.375 7.875 21.375C9.7425 21.375 11.25 19.8675 11.25 18H16.29L21.375 11.6438V7.875ZM7.875 19.125C7.25625 19.125 6.75 18.6187 6.75 18H9C9 18.6187 8.49375 19.125 7.875 19.125Z" fill="#495E57"/>
<path d="M5.625 6.75H11.25V9H5.625V6.75Z" fill="#495E57"/>
<path d="M21.375 14.625C19.5075 14.625 18 16.1325 18 18C18 19.8675 19.5075 21.375 21.375 21.375C23.2425 21.375 24.75 19.8675 24.75 18C24.75 16.1325 23.2425 14.625 21.375 14.625ZM21.375 19.125C20.7562 19.125 20.25 18.6188 20.25 18C20.25 17.3812 20.7562 16.875 21.375 16.875C21.9938 16.875 22.5 17.3812 22.5 18C22.5 18.6188 21.9938 19.125 21.375 19.125Z" fill="#495E57"/>
</svg>
